<?xml version="1.0" encoding="UTF-8"?>
<svg id="Layer_2" data-name="Layer 2" xmlns="http://www.w3.org/2000/svg" viewBox="0 0 373.49 432.99">
  <defs>
    <style>
      .cls-1 {
        fill: #111819;
      }

      .cls-2 {
        fill: #fcbf33;
      }
    </style>
  </defs>
  <g id="Layer_1-2" data-name="Layer 1">
    <g>
      <path class="cls-1" d="M187.83,432.99h-2c-57.19-29.64-111.15-70.06-143.81-126.69C13.87,257.49,6.27,203.86,2.84,148.48,1.16,121.31-1.27,88.56.79,61.45c1.01-13.28,11.8-8.71,21.55-9.45,35.94-2.72,72.15-10.44,105.75-23.25,20.26-7.73,39.55-17.84,58.22-28.75,25.92,14.88,53.05,27.56,81.75,36.26,26.83,8.13,55.27,13.46,83.26,15.74,8.23.67,20.67-2.99,21.56,8.44,1.6,20.71-.4,43.33-1.09,64-3.54,105.77-18.64,186.13-103.46,256.54-24.69,20.49-52.02,37.29-80.49,52.01ZM19.83,69.98c-.06,92.7.78,193.47,66.48,266.03,28.31,31.26,63.53,56.89,101.02,75.94,47.94-25.59,94.7-60.33,123.92-107.04,34.94-55.85,41.11-126.02,42.62-190.38.34-14.49.02-29.13-.48-43.61-1.19-1.78-8.47-.7-11.07-.93-11.38-.98-24.38-3.24-35.69-5.31-42.21-7.71-82.7-22.29-120.31-42.69-32.34,18.1-66.99,31.69-103.28,39.69-20.52,4.52-42.21,8.02-63.2,8.3Z"/>
      <path class="cls-2" d="M19.83,69.98c21-.28,42.68-3.77,63.2-8.3,36.3-8,70.95-21.59,103.28-39.69,37.62,20.4,78.1,34.98,120.31,42.69,11.31,2.07,24.31,4.32,35.69,5.31,2.6.22,9.88-.85,11.07.93.5,14.48.83,29.12.48,43.61-1.52,64.35-7.68,134.53-42.62,190.38-29.23,46.71-75.98,81.45-123.92,107.04-37.49-19.05-72.71-44.68-101.02-75.94C20.61,263.46,19.77,162.68,19.83,69.98ZM202.83,272.99v-85.5c4.78-2.5,9.98-3.27,15.02-5.98,36.32-19.55,37.5-73.29,6.47-98.51-33.34-27.09-85.09-9.42-95.01,31.96-7.99,33.32,10.08,65.07,43.58,72.61l.13,164.73,1.23,1.77c.59.57,1.31.77,2.1.9,2.72.46,21.86.32,23.48-.49,1.07-.53,1.96-2.23,3-3v-15.5h36.5l1.5-1.5v-22l-1.5-1.5h-17.5v-14h19v-22.5l-1.5-1.5h-36.5Z"/>
      <path class="cls-1" d="M202.83,272.99h36.5l1.5,1.5v22.5h-19v14h17.5l1.5,1.5v22l-1.5,1.5h-36.5v15.5c-1.05.77-1.94,2.46-3,3-1.62.81-20.76.95-23.48.49-.79-.13-1.5-.34-2.1-.9l-1.23-1.77-.13-164.73c-33.5-7.54-51.57-39.3-43.58-72.61,9.92-41.38,61.67-59.05,95.01-31.96,31.04,25.22,29.85,78.96-6.47,98.51-5.04,2.71-10.24,3.48-15.02,5.98v85.5ZM185.64,98.23c-28.7,1.93-40.98,38.69-18.29,56.75,26.57,21.16,62.78-9.14,48.03-39.03-5.16-10.46-18-18.51-29.73-17.72Z"/>
      <path class="cls-2" d="M185.64,98.23c11.73-.79,24.57,7.26,29.73,17.72,14.75,29.88-21.45,60.18-48.03,39.03-22.69-18.06-10.41-54.82,18.29-56.75Z"/>
    </g>
  </g>
</svg>
